# xmcd
#
# Track frame offsets:
# 150
# 29102
# 44002
# 64560
# 89715
# 108285
# 129012
# 152307
# 176275
# 200500
#
# Disc length: 2864 seconds
#
#
# Revision: 1
# Processed by: cddbd v1.5.1PL2 Copyright (c) Steve Scherf et al.
# Submitted via: FreeRIP 2.945 
#
DISCID=7e0b2e0a
DTITLE=Sibongile Khumalo - Ancient Evenings
DYEAR=1996
DGENRE=Jazz
TTITLE0=Untold Story
TTITLE1=Ngibizwe
TTITLE2=Little Girl
TTITLE3=O Ea Kae
TTITLE4=Thula Mama
TTITLE5=Amathonga
TTITLE6=Sabela
TTITLE7=Mountain Shade
TTITLE8=Shango
TTITLE9=Isoka Lam'
EXTD=
EXTT0=
EXTT1=
EXTT2=
EXTT3=
EXTT4=
EXTT5=
EXTT6=
EXTT7=
EXTT8=
EXTT9=
PLAYORDER=
